<svg xmlns="http://www.w3.org/2000/svg" width="40.08" height="40.192"><path d="M16.93 39.646a.722.722 0 0 0 .697.546l4.831-.004a.721.721 0 0 0 .7-.545l1.232-4.963a15.772 15.772 0 0 0 2.832-1.204l4.406 2.652a.73.73 0 0 0 .356.099h.011a.723.723 0 0 0 .51-.208l3.414-3.43a.717.717 0 0 0 .212-.51l-.001-.034a.729.729 0 0 0-.102-.338l-2.644-4.416c.483-.9.877-1.85 1.17-2.83l4.98-1.25a.717.717 0 0 0 .546-.699v-4.84a.719.719 0 0 0-.546-.699l-4.98-1.252a15.374 15.374 0 0 0-1.172-2.826l2.641-4.42a.746.746 0 0 0 .003-.004.722.722 0 0 0-.112-.878L32.5 4.17a.736.736 0 0 0-.512-.208.718.718 0 0 0-.366.097l-4.406 2.652a16.053 16.053 0 0 0-2.829-1.198L23.15.547A.719.719 0 0 0 22.453 0H17.62a.721.721 0 0 0-.697.547l-1.242 4.99a15.223 15.223 0 0 0-2.827 1.177l-4.4-2.646a.696.696 0 0 0-.433-.103.724.724 0 0 0-.447.21L4.16 7.6a.722.722 0 0 0-.21.536.725.725 0 0 0 .103.345l2.641 4.415a15.805 15.805 0 0 0-1.203 2.845L.545 16.978a.72.72 0 0 0-.545.7v4.843a.724.724 0 0 0 .545.698l4.976 1.247c.292.978.686 1.927 1.177 2.839l-2.642 4.407a.722.722 0 0 0-.102.371.717.717 0 0 0 .21.508l3.419 3.43a.725.725 0 0 0 .529.209.71.71 0 0 0 .347-.102l4.401-2.65c.92.502 1.87.907 2.832 1.206l1.238 4.962Zm-4.083-7.721c.123 0 .248.031.36.096a14.179 14.179 0 0 0 3.279 1.39c.248.07.438.273.504.523l1.2 4.815 3.707-.003 1.198-4.817a.721.721 0 0 1 .501-.518 14.242 14.242 0 0 0 3.279-1.392.706.706 0 0 1 .356-.098.725.725 0 0 1 .372.102l4.28 2.58 2.624-2.635-2.571-4.29a.721.721 0 0 1-.103-.371.739.739 0 0 1 .095-.362 13.642 13.642 0 0 0 1.355-3.27.717.717 0 0 1 .519-.51l4.84-1.217v-3.713l-4.84-1.216a.714.714 0 0 1-.52-.51 13.893 13.893 0 0 0-1.354-3.273.729.729 0 0 1 .008-.73l2.565-4.29-2.62-2.627-4.28 2.575a.703.703 0 0 1-.729.006 14.399 14.399 0 0 0-3.278-1.391.713.713 0 0 1-.502-.517l-1.2-4.82h-3.707L16.977 6.29a.72.72 0 0 1-.51.52A13.889 13.889 0 0 0 13.2 8.172a.7.7 0 0 1-.718-.001.746.746 0 0 1-.01-.007L8.195 5.591l-2.62 2.631 2.565 4.284a.72.72 0 0 1 .103.365.725.725 0 0 1-.098.368 14.468 14.468 0 0 0-1.388 3.293.72.72 0 0 1-.52.506l-4.8 1.202v3.716l4.834 1.215a.718.718 0 0 1 .52.51 13.785 13.785 0 0 0 1.36 3.276.722.722 0 0 1 .096.355c0 .13-.034.261-.104.376l-2.566 4.285L8.2 34.605l4.276-2.576a.715.715 0 0 1 .37-.104Zm14.384-.004h.003" fill="#ff3b4a" fill-rule="evenodd" data-name="Settings"/></svg>