<svg xmlns="http://www.w3.org/2000/svg" width="39.261" height="37.001"><path d="m20.992 27.984-2.647-2.896 13.902-12.683a.843.843 0 0 0 .259-.488.864.864 0 0 0 .01-.134.839.839 0 0 0-.003-.068.836.836 0 0 0-1.395-.544L17.218 23.855l-.543-.597-2.083-2.285L28.487 8.291a.842.842 0 0 0 .243-.397.853.853 0 0 0 .03-.226c0-.197-.073-.4-.219-.56a.833.833 0 0 0-.466-.256.843.843 0 0 0-.716.204L13.46 19.742l-2.64-2.893L27.264 1.836a21.337 21.337 0 0 1 6.1 4.645 21.455 21.455 0 0 1 4.075 6.49L20.992 27.984ZM39.208 12.91a23.15 23.15 0 0 0-4.609-7.559 23.148 23.148 0 0 0-7.113-5.27.834.834 0 0 0-.924.14L9.073 16.18l-2.02 1.844a.868.868 0 0 0-.224.268.815.815 0 0 0-.036.077l-.019.05a1.808 1.808 0 0 1-.008.023l-4.703 12.21-2.007 5.216a.815.815 0 0 0-.056.297.849.849 0 0 0 .22.566.83.83 0 0 0 .615.27.852.852 0 0 0 .115-.008.695.695 0 0 0 .116-.026l5.378-1.524 12.65-3.587a.77.77 0 0 0 .007-.002.86.86 0 0 0 .223-.101 1.748 1.748 0 0 0 .115-.088l2.065-1.885L38.99 13.818a.834.834 0 0 0 .269-.67.838.838 0 0 0-.051-.238ZM18.454 30.302 6.741 33.623a.601.601 0 0 0-.065-.103.683.683 0 0 1-.062-.094 6.224 6.224 0 0 0-1.019-1.606 6.281 6.281 0 0 0-1.51-1.16c-.07-.04-.112-.103-.181-.14L8.276 19.17l1.31-1.189 1.058 1.156 9.114 9.976-1.304 1.19Zm-15.06 1.867a.614.614 0 0 0-.035-.017c-.024-.01-.049-.021-.071-.036l-1.073 2.792 2.877-.818a.68.68 0 0 1-.014-.038l-.002-.007a.312.312 0 0 0-.03-.068 4.635 4.635 0 0 0-.685-1.03c-.276-.306-.61-.554-.967-.778Zm3.282 1.35-.002-.001" fill="#ff3b4a" fill-rule="evenodd" data-name="Pencil"/></svg>