<svg xmlns="http://www.w3.org/2000/svg" width="40.088" height="32.976"><path d="M19.56 32.76c-.011-.014-.029-.015-.043-.02a.038.038 0 0 1-.018-.012L.179 10.896a.715.715 0 0 1-.163-.434c0-.017-.016-.028-.016-.042a.056.056 0 0 1 .001-.012c.005-.024.026-.04.028-.066a.442.442 0 0 0 .004-.047c.003-.053 0-.107.022-.159L4.177.44A.728.728 0 0 1 4.846 0h30.398a.728.728 0 0 1 .669.44l4.12 9.696a.197.197 0 0 1 .004.012c.017.048.015.098.016.147a.516.516 0 0 0 .003.047c.004.025.022.04.029.061a.055.055 0 0 1 .003.017.021.021 0 0 1-.001.005c-.002.006-.006.012-.01.019a.037.037 0 0 0-.005.018.719.719 0 0 1-.166.434l-19.32 21.832a.033.033 0 0 1-.008.007c-.012.008-.028.008-.042.015a.042.042 0 0 0-.013.01c-.05.045-.092.087-.155.118-.014.009-.016.032-.035.037a.773.773 0 0 1-.19.053.72.72 0 0 1-.102.008.715.715 0 0 1-.143-.015.782.782 0 0 1-.146-.046.026.026 0 0 1-.006-.002c-.01-.006-.014-.017-.02-.025a.022.022 0 0 0-.009-.007c-.06-.032-.101-.072-.151-.116a14.178 14.178 0 0 0-.002-.002c.052.046.093.086.153.118m8.797-21.74-8.473 19.307-8.468-19.307h16.941Zm-18.525 0 7.53 17.17-15.192-17.17h7.662Zm20.11 0h7.659L22.565 28.309 30.1 11.14ZM24.97 1.443l3.554 8.256H11.563l3.556-8.256h9.852Zm-19.646 0h8.22L9.99 9.699H1.816l3.509-8.256ZM38.27 9.699h-8.17l-3.553-8.256h8.215l3.508 8.256Z" fill="#ff3b4a" fill-rule="evenodd" data-name="Diamond"/></svg>