<svg xmlns="http://www.w3.org/2000/svg" width="43.986" height="32.993"><path d="M43.948 16.45V6.047a.788.788 0 0 0-.79-.782h-15.04V.778A.783.783 0 0 0 27.33 0H.79A.785.785 0 0 0 0 .778v26.193c0 .432.355.78.79.78h2.667c.435 0 .79-.348.79-.78a.786.786 0 0 0-.79-.781H1.578V1.556H26.54v19.589a.788.788 0 0 0 .79.781.785.785 0 0 0 .788-.78V6.825h6.338v9.715c0 .43.353.779.788.779h7.126v8.87h-1.85a.784.784 0 0 0-.788.78.783.783 0 0 0 .788.78h2.638a.785.785 0 0 0 .79-.78V16.63a.066.066 0 0 1 .008-.027c.01-.018.025-.033.029-.053a.05.05 0 0 0 0-.009c0-.033-.029-.052-.035-.083a.06.06 0 0 1-.002-.009Zm-11.353 4.506c-3.36 0-6.092 2.699-6.092 6.017 0 3.32 2.732 6.02 6.092 6.02 3.354 0 6.083-2.7 6.083-6.02 0-3.318-2.73-6.017-6.083-6.017Zm-21.204-.004a6.06 6.06 0 0 0-6.09 6.019 6.059 6.059 0 0 0 6.09 6.019 6.06 6.06 0 0 0 6.09-6.02 6.062 6.062 0 0 0-6.09-6.018Zm30.98-5.192h-6.34V6.826h6.34v8.934ZM6.876 26.97a4.492 4.492 0 0 0 4.514 4.46 4.491 4.491 0 0 0 4.511-4.46c0-2.458-2.025-4.456-4.511-4.456-2.49 0-4.514 1.998-4.514 4.457Zm21.204.003a4.492 4.492 0 0 0 4.514 4.46 4.488 4.488 0 0 0 4.505-4.46 4.487 4.487 0 0 0-4.505-4.458 4.49 4.49 0 0 0-4.514 4.458Zm-3.42-.783h-5.34a.784.784 0 0 0-.787.78.783.783 0 0 0 .788.78h5.339a.783.783 0 0 0 .787-.78.784.784 0 0 0-.787-.78Z" fill="#ff3b4a" fill-rule="evenodd" data-name="Truck 2"/></svg>